<svg width="276" height="276" viewBox="0 0 276 276" fill="none" xmlns="http://www.w3.org/2000/svg">
<g opacity="0.2">
<mask id="path-1-inside-1_712_10" fill="white">
<path fill-rule="evenodd" clip-rule="evenodd" d="M93.916 0.0875652C90.2832 0.368665 88.0413 0.760383 84.8952 1.66338C74.1169 4.75766 64.9214 12.9864 59.993 23.9487C56.6755 31.3272 54.9888 40.1297 55.2965 48.4583C55.3582 50.1277 55.476 52.0626 55.5585 52.7582C55.6408 53.4538 55.6866 54.0447 55.66 54.0713C55.6335 54.098 53.9579 54.0388 51.9366 53.9398C46.2223 53.6602 41.0171 54.0339 35.1751 55.1429C34.2008 55.3279 33.0912 55.5812 32.7092 55.7058C32.3271 55.8304 31.4023 56.0958 30.6541 56.2955C27.7313 57.0754 23.105 58.9971 20.2319 60.6248C15.8847 63.0876 11.4119 66.8601 8.39714 70.6068C2.57518 77.8422 -0.610706 88.0874 0.0975892 97.2969C1.18886 111.485 8.37571 124.772 21.1492 136.216L22.6979 137.603L21.7444 138.468C16.5996 143.13 12.2702 148.001 9.19505 152.585C4.29515 159.889 1.51316 167.096 0.276491 175.687C-0.0308048 177.821 0.0214028 183.651 0.366962 185.804C0.843637 188.773 1.28987 190.681 2.02351 192.886C5.45444 203.201 12.7384 211.172 23.3361 216.209C31.1704 219.933 41.3171 221.821 50.3505 221.235C52.1444 221.118 53.9947 220.96 54.4623 220.883C54.93 220.806 55.3742 220.8 55.4493 220.87C55.5245 220.94 55.4951 222.318 55.384 223.931C54.9524 230.202 55.6078 237.691 57.0947 243.48C59.4114 252.501 63.6667 259.999 69.611 265.535C75.4464 270.969 81.8719 274.089 90.3447 275.603C92.4538 275.98 97.9819 276.119 100.55 275.861C107.603 275.15 115.401 272.546 121.568 268.842C122.447 268.314 123.434 267.724 123.761 267.531C124.962 266.823 128.661 264.105 130.547 262.545C132.656 260.801 136.62 256.985 138.502 254.889L139.683 253.573L142.309 256.31C152.139 266.56 162.632 272.775 174.029 275.095C177.918 275.887 180.192 276.082 184.213 275.971C188.92 275.841 192.487 275.17 196.716 273.617C211.465 268.204 221.095 255.041 223.694 236.741C224.174 233.361 224.175 224.608 223.696 221.469C223.68 221.36 224.643 221.32 226.392 221.355C232.441 221.478 239.526 220.591 245.013 219.021C255.366 216.06 263.483 210.54 269.183 202.582C272.462 198.004 274.898 191.676 275.734 185.56C276.037 183.346 276.074 177.998 275.803 175.687C275.314 171.525 273.966 166.527 272.187 162.289C268.77 154.146 262.979 146.274 255.218 139.222L253.434 137.601L256.472 134.687C262.212 129.182 265.541 125.029 269.362 118.607C272.426 113.454 274.885 106.243 275.722 99.9533C276.055 97.4517 276.097 92.5106 275.805 90.1089C275.306 85.9961 273.964 81.3675 272.222 77.7494C267.337 67.6052 257.858 59.9081 245.863 56.3461C242.637 55.388 242.325 55.3148 239.231 54.7927C234.653 54.0202 233.034 53.8863 228.347 53.8931L224.011 53.8993V48.1434C224.011 41.7643 223.898 40.4138 222.963 35.6427C220.991 25.5759 216.937 17.6446 210.503 11.2644C208.172 8.9524 206.515 7.60339 204.214 6.14208C196.991 1.55478 188.633 -0.508022 179.888 0.138659C173.531 0.608957 168.12 2.08359 161.876 5.04787C155.251 8.19325 150.054 11.9899 143.606 18.397L139.557 22.4199L138.774 21.5273C137.403 19.9645 132.232 14.9287 130.734 13.6972C123.358 7.63644 116.134 3.73781 108.432 1.66169C103.583 0.354837 98.1198 -0.237546 93.916 0.0875652ZM186.768 21.3685C192.015 22.4934 196.167 25.129 199.292 29.3192C200.588 31.0564 201.332 32.4538 202.216 34.8134C203.469 38.1549 203.926 41.0502 203.918 45.5916C203.91 49.9536 203.368 53.8405 202.18 58.0699L201.706 59.7562L200.359 60.4304C197.372 61.9261 193.489 63.9767 192.125 64.7794C188.394 66.9753 183.122 70.6235 178.86 73.9594C177.221 75.2425 173.362 78.5754 170.783 80.9355C163.778 87.3449 156.265 95.5884 149.185 104.634C148.467 105.552 144.24 111.183 143.301 112.473C141.953 114.326 138.01 120.064 136.856 121.855C136.248 122.798 135.698 123.572 135.634 123.575C135.33 123.59 127.099 117.666 122.662 114.238C120.801 112.801 115.684 108.714 114.426 107.661C108.245 102.486 99.6923 94.3105 95.6239 89.6873C84.6438 77.21 78.0893 65.3726 75.7362 53.77C74.3701 47.0342 74.5068 39.4058 76.0778 34.7174C78.1372 28.5715 82.4297 24.1611 88.1425 22.3211C90.6141 21.525 92.5835 21.2265 95.3615 21.2269C98.1135 21.2272 100.145 21.5137 103.073 22.314C107.994 23.659 111.885 25.6116 117.369 29.4878C121.332 32.2889 127.752 38.8776 131.263 43.7489C133.82 47.2949 136.851 52.3493 138.658 56.0808C139.117 57.0273 139.542 57.805 139.603 57.8093C139.664 57.8135 139.793 57.6083 139.889 57.3533C141.036 54.3239 143.736 48.8191 145.533 45.8446C150.697 37.2994 156.406 31.2227 163.627 26.5851C166.831 24.5275 171.637 22.4786 175.289 21.6135C178.597 20.8297 183.742 20.72 186.768 21.3685ZM236.765 73.5751C242.106 74.5289 245.561 76.0797 248.658 78.9126C250.907 80.9697 253.079 84.4537 253.759 87.0959C254.261 89.0447 254.707 92.082 254.705 93.5403C254.703 95.1132 254.223 98.5321 253.697 100.723C252.554 105.484 249.092 112.062 245.283 116.712C244.526 117.635 243.655 118.704 243.346 119.089C241.894 120.891 237.033 125.362 233.959 127.721C232.728 128.666 228.76 131.42 227.837 131.97C224.914 133.713 223.071 134.739 220.528 136.039C218.215 137.221 217.631 137.585 217.893 137.678C219.065 138.097 222.959 139.797 224.624 140.616C242.791 149.553 254.033 163.427 254.976 178.076C255.291 182.953 253.686 188.662 251.011 192.186C247.054 197.4 241.48 200.381 234.264 201.143C231.938 201.389 228.32 201.357 225.626 201.067C222.618 200.743 221.734 200.591 219.024 199.934L216.758 199.385L215.984 197.948C210.668 188.089 204.891 180.186 196.391 171.146C189.705 164.035 181.714 156.827 173.078 150.117C170.273 147.938 164.923 143.962 163.64 143.103C163.266 142.853 162.462 142.291 161.854 141.854C160.528 140.901 153.565 136.261 151.949 135.253C151.317 134.859 150.801 134.472 150.801 134.392C150.801 133.926 159.178 122.714 163.717 117.106C164.61 116.003 165.529 114.865 165.76 114.577C166.636 113.485 169.131 110.618 172.967 106.298C174.798 104.236 181.239 97.8203 183.707 95.6012C193.794 86.5303 202.92 80.5942 212.384 76.9476C217.407 75.012 222.143 73.9146 228.262 73.268C229.755 73.1102 235.28 73.3099 236.765 73.5751ZM53.1869 74.5683C55.6958 74.9718 59.4 75.8123 61.1807 76.3822L62.7974 76.8996L63.8166 78.8639C65.8057 82.6973 69.4646 88.4351 72.4926 92.4697C83.1363 106.651 98.5563 120.798 117.639 133.89C120.723 136.005 125.151 138.924 125.773 139.25C126.017 139.378 126.131 139.554 126.071 139.709C125.966 139.98 124.8 141.648 123.166 143.865C122.605 144.627 121.572 146.046 120.87 147.02C119.692 148.656 118.411 150.352 115.088 154.675C112.37 158.212 107.797 163.67 104.21 167.659C99.7949 172.568 91.0229 181.092 87.9938 183.417C87.6726 183.663 86.6925 184.438 85.8161 185.138C82.9739 187.409 82.7791 187.552 79.495 189.794C71.6427 195.154 62.7248 199.22 55.3908 200.784C51.1771 201.682 49.0453 201.906 44.6839 201.905C41.369 201.905 40.2048 201.843 38.987 201.603C34.9154 200.802 32.3339 199.816 29.6257 198.029C22.0122 193.006 19.4685 183.087 23.0191 172.268C24.1767 168.741 26.6472 163.942 28.7717 161.094C30.5971 158.647 31.3229 157.741 32.6045 156.308C38.6516 149.548 46.0718 143.974 55.3432 139.229L58.4349 137.646L56.4486 136.827C53.9674 135.803 48.278 133.019 46.4696 131.943C34.658 124.918 26.5261 115.959 22.9668 106.049C21.5053 101.98 20.8196 97.2858 21.1862 93.8608C21.6544 89.4865 22.6622 86.5166 24.7325 83.4095C25.6955 81.9644 28.166 79.4941 29.7603 78.3821C32.7067 76.3269 37.102 74.8275 41.7929 74.2773C43.2605 74.1053 51.6375 74.3191 53.1869 74.5683ZM141.575 150.856C141.837 151.019 142.804 151.683 143.723 152.332C144.643 152.981 145.725 153.74 146.127 154.018C147.935 155.27 148.759 155.87 152.756 158.852C158.89 163.428 163.78 167.271 166.113 169.349C166.538 169.728 167.455 170.531 168.151 171.134C168.847 171.737 170.106 172.83 170.95 173.564C174.41 176.576 183.212 185.57 185.918 188.859C186.105 189.086 186.61 189.687 187.041 190.194C187.909 191.215 191.042 195.362 192.406 197.294C194.518 200.285 197.641 205.698 199.296 209.235C201.783 214.549 203.65 221.014 204.388 226.865C204.667 229.082 204.669 234.753 204.39 236.476C203.054 244.75 199.194 250.33 192.864 253.137C191.124 253.908 187.928 254.576 185.323 254.713C177.5 255.124 168.525 251.653 160.128 244.97C158.014 243.287 153.279 238.644 151.294 236.308C147.532 231.878 144.078 226.599 141.184 220.855C140.559 219.616 139.968 218.503 139.869 218.382C139.733 218.215 139.557 218.483 139.145 219.478C137.995 222.26 137.632 223.059 136.441 225.43C129.254 239.737 118.535 249.947 106.755 253.708C106.334 253.842 104.995 254.18 103.779 254.459C101.894 254.892 101.106 254.98 98.4225 255.058C95.0067 255.156 93.6952 255.005 90.7182 254.17C83.8111 252.23 78.713 246.747 76.5535 238.934C75.637 235.619 75.409 233.425 75.5266 229.057C75.6574 224.198 76.2071 221.056 77.8758 215.626C78.5588 213.405 78.6042 213.315 79.1921 213.04C81.9705 211.737 88.4788 207.707 92.3854 204.872C101.218 198.459 109.847 190.486 118.219 180.998C120.483 178.433 121.478 177.263 123.166 175.181C123.447 174.834 124.254 173.839 124.961 172.969C126.902 170.579 128.195 168.892 130.904 165.219C134.495 160.349 135.197 159.349 138.256 154.741C139.777 152.449 141.04 150.571 141.061 150.568C141.082 150.564 141.313 150.694 141.575 150.856Z"/>
</mask>
<path fill-rule="evenodd" clip-rule="evenodd" d="M93.916 0.0875652C90.2832 0.368665 88.0413 0.760383 84.8952 1.66338C74.1169 4.75766 64.9214 12.9864 59.993 23.9487C56.6755 31.3272 54.9888 40.1297 55.2965 48.4583C55.3582 50.1277 55.476 52.0626 55.5585 52.7582C55.6408 53.4538 55.6866 54.0447 55.66 54.0713C55.6335 54.098 53.9579 54.0388 51.9366 53.9398C46.2223 53.6602 41.0171 54.0339 35.1751 55.1429C34.2008 55.3279 33.0912 55.5812 32.7092 55.7058C32.3271 55.8304 31.4023 56.0958 30.6541 56.2955C27.7313 57.0754 23.105 58.9971 20.2319 60.6248C15.8847 63.0876 11.4119 66.8601 8.39714 70.6068C2.57518 77.8422 -0.610706 88.0874 0.0975892 97.2969C1.18886 111.485 8.37571 124.772 21.1492 136.216L22.6979 137.603L21.7444 138.468C16.5996 143.13 12.2702 148.001 9.19505 152.585C4.29515 159.889 1.51316 167.096 0.276491 175.687C-0.0308048 177.821 0.0214028 183.651 0.366962 185.804C0.843637 188.773 1.28987 190.681 2.02351 192.886C5.45444 203.201 12.7384 211.172 23.3361 216.209C31.1704 219.933 41.3171 221.821 50.3505 221.235C52.1444 221.118 53.9947 220.96 54.4623 220.883C54.93 220.806 55.3742 220.8 55.4493 220.87C55.5245 220.94 55.4951 222.318 55.384 223.931C54.9524 230.202 55.6078 237.691 57.0947 243.48C59.4114 252.501 63.6667 259.999 69.611 265.535C75.4464 270.969 81.8719 274.089 90.3447 275.603C92.4538 275.98 97.9819 276.119 100.55 275.861C107.603 275.15 115.401 272.546 121.568 268.842C122.447 268.314 123.434 267.724 123.761 267.531C124.962 266.823 128.661 264.105 130.547 262.545C132.656 260.801 136.62 256.985 138.502 254.889L139.683 253.573L142.309 256.31C152.139 266.56 162.632 272.775 174.029 275.095C177.918 275.887 180.192 276.082 184.213 275.971C188.92 275.841 192.487 275.17 196.716 273.617C211.465 268.204 221.095 255.041 223.694 236.741C224.174 233.361 224.175 224.608 223.696 221.469C223.68 221.36 224.643 221.32 226.392 221.355C232.441 221.478 239.526 220.591 245.013 219.021C255.366 216.06 263.483 210.54 269.183 202.582C272.462 198.004 274.898 191.676 275.734 185.56C276.037 183.346 276.074 177.998 275.803 175.687C275.314 171.525 273.966 166.527 272.187 162.289C268.77 154.146 262.979 146.274 255.218 139.222L253.434 137.601L256.472 134.687C262.212 129.182 265.541 125.029 269.362 118.607C272.426 113.454 274.885 106.243 275.722 99.9533C276.055 97.4517 276.097 92.5106 275.805 90.1089C275.306 85.9961 273.964 81.3675 272.222 77.7494C267.337 67.6052 257.858 59.9081 245.863 56.3461C242.637 55.388 242.325 55.3148 239.231 54.7927C234.653 54.0202 233.034 53.8863 228.347 53.8931L224.011 53.8993V48.1434C224.011 41.7643 223.898 40.4138 222.963 35.6427C220.991 25.5759 216.937 17.6446 210.503 11.2644C208.172 8.9524 206.515 7.60339 204.214 6.14208C196.991 1.55478 188.633 -0.508022 179.888 0.138659C173.531 0.608957 168.12 2.08359 161.876 5.04787C155.251 8.19325 150.054 11.9899 143.606 18.397L139.557 22.4199L138.774 21.5273C137.403 19.9645 132.232 14.9287 130.734 13.6972C123.358 7.63644 116.134 3.73781 108.432 1.66169C103.583 0.354837 98.1198 -0.237546 93.916 0.0875652ZM186.768 21.3685C192.015 22.4934 196.167 25.129 199.292 29.3192C200.588 31.0564 201.332 32.4538 202.216 34.8134C203.469 38.1549 203.926 41.0502 203.918 45.5916C203.91 49.9536 203.368 53.8405 202.18 58.0699L201.706 59.7562L200.359 60.4304C197.372 61.9261 193.489 63.9767 192.125 64.7794C188.394 66.9753 183.122 70.6235 178.86 73.9594C177.221 75.2425 173.362 78.5754 170.783 80.9355C163.778 87.3449 156.265 95.5884 149.185 104.634C148.467 105.552 144.24 111.183 143.301 112.473C141.953 114.326 138.01 120.064 136.856 121.855C136.248 122.798 135.698 123.572 135.634 123.575C135.33 123.59 127.099 117.666 122.662 114.238C120.801 112.801 115.684 108.714 114.426 107.661C108.245 102.486 99.6923 94.3105 95.6239 89.6873C84.6438 77.21 78.0893 65.3726 75.7362 53.77C74.3701 47.0342 74.5068 39.4058 76.0778 34.7174C78.1372 28.5715 82.4297 24.1611 88.1425 22.3211C90.6141 21.525 92.5835 21.2265 95.3615 21.2269C98.1135 21.2272 100.145 21.5137 103.073 22.314C107.994 23.659 111.885 25.6116 117.369 29.4878C121.332 32.2889 127.752 38.8776 131.263 43.7489C133.82 47.2949 136.851 52.3493 138.658 56.0808C139.117 57.0273 139.542 57.805 139.603 57.8093C139.664 57.8135 139.793 57.6083 139.889 57.3533C141.036 54.3239 143.736 48.8191 145.533 45.8446C150.697 37.2994 156.406 31.2227 163.627 26.5851C166.831 24.5275 171.637 22.4786 175.289 21.6135C178.597 20.8297 183.742 20.72 186.768 21.3685ZM236.765 73.5751C242.106 74.5289 245.561 76.0797 248.658 78.9126C250.907 80.9697 253.079 84.4537 253.759 87.0959C254.261 89.0447 254.707 92.082 254.705 93.5403C254.703 95.1132 254.223 98.5321 253.697 100.723C252.554 105.484 249.092 112.062 245.283 116.712C244.526 117.635 243.655 118.704 243.346 119.089C241.894 120.891 237.033 125.362 233.959 127.721C232.728 128.666 228.76 131.42 227.837 131.97C224.914 133.713 223.071 134.739 220.528 136.039C218.215 137.221 217.631 137.585 217.893 137.678C219.065 138.097 222.959 139.797 224.624 140.616C242.791 149.553 254.033 163.427 254.976 178.076C255.291 182.953 253.686 188.662 251.011 192.186C247.054 197.4 241.48 200.381 234.264 201.143C231.938 201.389 228.32 201.357 225.626 201.067C222.618 200.743 221.734 200.591 219.024 199.934L216.758 199.385L215.984 197.948C210.668 188.089 204.891 180.186 196.391 171.146C189.705 164.035 181.714 156.827 173.078 150.117C170.273 147.938 164.923 143.962 163.64 143.103C163.266 142.853 162.462 142.291 161.854 141.854C160.528 140.901 153.565 136.261 151.949 135.253C151.317 134.859 150.801 134.472 150.801 134.392C150.801 133.926 159.178 122.714 163.717 117.106C164.61 116.003 165.529 114.865 165.76 114.577C166.636 113.485 169.131 110.618 172.967 106.298C174.798 104.236 181.239 97.8203 183.707 95.6012C193.794 86.5303 202.92 80.5942 212.384 76.9476C217.407 75.012 222.143 73.9146 228.262 73.268C229.755 73.1102 235.28 73.3099 236.765 73.5751ZM53.1869 74.5683C55.6958 74.9718 59.4 75.8123 61.1807 76.3822L62.7974 76.8996L63.8166 78.8639C65.8057 82.6973 69.4646 88.4351 72.4926 92.4697C83.1363 106.651 98.5563 120.798 117.639 133.89C120.723 136.005 125.151 138.924 125.773 139.25C126.017 139.378 126.131 139.554 126.071 139.709C125.966 139.98 124.8 141.648 123.166 143.865C122.605 144.627 121.572 146.046 120.87 147.02C119.692 148.656 118.411 150.352 115.088 154.675C112.37 158.212 107.797 163.67 104.21 167.659C99.7949 172.568 91.0229 181.092 87.9938 183.417C87.6726 183.663 86.6925 184.438 85.8161 185.138C82.9739 187.409 82.7791 187.552 79.495 189.794C71.6427 195.154 62.7248 199.22 55.3908 200.784C51.1771 201.682 49.0453 201.906 44.6839 201.905C41.369 201.905 40.2048 201.843 38.987 201.603C34.9154 200.802 32.3339 199.816 29.6257 198.029C22.0122 193.006 19.4685 183.087 23.0191 172.268C24.1767 168.741 26.6472 163.942 28.7717 161.094C30.5971 158.647 31.3229 157.741 32.6045 156.308C38.6516 149.548 46.0718 143.974 55.3432 139.229L58.4349 137.646L56.4486 136.827C53.9674 135.803 48.278 133.019 46.4696 131.943C34.658 124.918 26.5261 115.959 22.9668 106.049C21.5053 101.98 20.8196 97.2858 21.1862 93.8608C21.6544 89.4865 22.6622 86.5166 24.7325 83.4095C25.6955 81.9644 28.166 79.4941 29.7603 78.3821C32.7067 76.3269 37.102 74.8275 41.7929 74.2773C43.2605 74.1053 51.6375 74.3191 53.1869 74.5683ZM141.575 150.856C141.837 151.019 142.804 151.683 143.723 152.332C144.643 152.981 145.725 153.74 146.127 154.018C147.935 155.27 148.759 155.87 152.756 158.852C158.89 163.428 163.78 167.271 166.113 169.349C166.538 169.728 167.455 170.531 168.151 171.134C168.847 171.737 170.106 172.83 170.95 173.564C174.41 176.576 183.212 185.57 185.918 188.859C186.105 189.086 186.61 189.687 187.041 190.194C187.909 191.215 191.042 195.362 192.406 197.294C194.518 200.285 197.641 205.698 199.296 209.235C201.783 214.549 203.65 221.014 204.388 226.865C204.667 229.082 204.669 234.753 204.39 236.476C203.054 244.75 199.194 250.33 192.864 253.137C191.124 253.908 187.928 254.576 185.323 254.713C177.5 255.124 168.525 251.653 160.128 244.97C158.014 243.287 153.279 238.644 151.294 236.308C147.532 231.878 144.078 226.599 141.184 220.855C140.559 219.616 139.968 218.503 139.869 218.382C139.733 218.215 139.557 218.483 139.145 219.478C137.995 222.26 137.632 223.059 136.441 225.43C129.254 239.737 118.535 249.947 106.755 253.708C106.334 253.842 104.995 254.18 103.779 254.459C101.894 254.892 101.106 254.98 98.4225 255.058C95.0067 255.156 93.6952 255.005 90.7182 254.17C83.8111 252.23 78.713 246.747 76.5535 238.934C75.637 235.619 75.409 233.425 75.5266 229.057C75.6574 224.198 76.2071 221.056 77.8758 215.626C78.5588 213.405 78.6042 213.315 79.1921 213.04C81.9705 211.737 88.4788 207.707 92.3854 204.872C101.218 198.459 109.847 190.486 118.219 180.998C120.483 178.433 121.478 177.263 123.166 175.181C123.447 174.834 124.254 173.839 124.961 172.969C126.902 170.579 128.195 168.892 130.904 165.219C134.495 160.349 135.197 159.349 138.256 154.741C139.777 152.449 141.04 150.571 141.061 150.568C141.082 150.564 141.313 150.694 141.575 150.856Z" stroke="black" stroke-width="2" mask="url(#path-1-inside-1_712_10)"/>
</g>
</svg>
