<svg width="1945" height="316" viewBox="0 0 1945 316" fill="none" xmlns="http://www.w3.org/2000/svg">
<g opacity="0.4">
<path d="M65.0833 4.20333V311.647H0V4.20333H65.0833Z" fill="#01B685"/>
<path d="M227.326 311.647H157.583L263.851 4.20333H347.722L453.84 311.647H384.097L306.989 74.4589H304.584L227.326 311.647ZM222.967 190.801H387.704V241.541H222.967V190.801Z" fill="#01B685"/>
<path d="M726.867 111.838H661.032C659.829 103.332 657.374 95.7758 653.667 89.1706C649.959 82.4652 645.199 76.7607 639.388 72.057C633.576 67.3533 626.862 63.7504 619.246 61.2485C611.731 58.7465 603.564 57.4955 594.746 57.4955C578.813 57.4955 564.935 61.4486 553.111 69.3549C541.287 77.1611 532.118 88.5701 525.604 103.582C519.091 118.494 515.834 136.608 515.834 157.925C515.834 179.842 519.091 198.257 525.604 213.169C532.218 228.08 541.437 239.339 553.261 246.945C565.085 254.551 578.763 258.354 594.295 258.354C603.013 258.354 611.08 257.203 618.495 254.902C626.01 252.6 632.674 249.247 638.486 244.844C644.298 240.34 649.107 234.886 652.915 228.481C656.823 222.076 659.529 214.77 661.032 206.563L726.867 206.864C725.163 220.975 720.905 234.586 714.091 247.696C707.377 260.706 698.308 272.365 686.885 282.674C675.562 292.882 662.034 300.988 646.302 306.993C630.67 312.898 612.983 315.85 593.243 315.85C565.787 315.85 541.236 309.645 519.592 297.235C498.048 284.825 481.013 266.861 468.487 243.343C456.062 219.824 449.849 191.351 449.849 157.925C449.849 124.398 456.162 95.8759 468.788 72.3573C481.414 48.8386 498.549 30.9245 520.193 18.6147C541.838 6.20491 566.188 0 593.243 0C611.079 0 627.613 2.50198 642.845 7.50594C658.176 12.5099 671.754 19.8157 683.578 29.4233C695.402 38.9308 705.022 50.59 712.437 64.401C719.953 78.2119 724.762 94.0244 726.867 111.838Z" fill="#01B685"/>
<path d="M740.65 57.7957V4.20333H993.468V57.7957H899.225V311.647H834.893V57.7957H740.65Z" fill="#01B685"/>
<path d="M1079.02 4.20333V311.647H1013.94V4.20333H1079.02Z" fill="#01B685"/>
<path d="M1394.29 157.925C1394.29 191.451 1387.92 219.974 1375.2 243.493C1362.57 267.011 1345.34 284.975 1323.49 297.385C1301.75 309.695 1277.3 315.85 1250.14 315.85C1222.79 315.85 1198.23 309.645 1176.49 297.235C1154.75 284.825 1137.56 266.861 1124.93 243.343C1112.31 219.824 1106 191.351 1106 157.925C1106 124.398 1112.31 95.8759 1124.93 72.3573C1137.56 48.8386 1154.75 30.9245 1176.49 18.6147C1198.23 6.20491 1222.79 0 1250.14 0C1277.3 0 1301.75 6.20491 1323.49 18.6147C1345.34 30.9245 1362.57 48.8386 1375.2 72.3573C1387.92 95.8759 1394.29 124.398 1394.29 157.925ZM1328.3 157.925C1328.3 136.208 1325.04 117.893 1318.53 102.981C1312.12 88.0697 1303.05 76.7607 1291.33 69.0546C1279.6 61.3485 1265.87 57.4955 1250.14 57.4955C1234.41 57.4955 1220.68 61.3485 1208.96 69.0546C1197.23 76.7607 1188.11 88.0697 1181.6 102.981C1175.19 117.893 1171.98 136.208 1171.98 157.925C1171.98 179.642 1175.19 197.957 1181.6 212.868C1188.11 227.78 1197.23 239.089 1208.96 246.795C1220.68 254.501 1234.41 258.354 1250.14 258.354C1265.87 258.354 1279.6 254.501 1291.33 246.795C1303.05 239.089 1312.12 227.78 1318.53 212.868C1325.04 197.957 1328.3 179.642 1328.3 157.925Z" fill="#01B685"/>
<path d="M1678.81 4.20333V311.647H1622.6L1488.67 118.143H1486.42V311.647H1421.33V4.20333H1478.45L1611.32 197.556H1614.03V4.20333H1678.81Z" fill="#01B685"/>
<path d="M1878.41 92.6233C1877.21 80.5137 1872.05 71.1063 1862.93 64.401C1853.81 57.6956 1841.44 54.343 1825.81 54.343C1815.18 54.343 1806.22 55.8442 1798.9 58.8466C1791.59 61.7489 1785.97 65.8021 1782.07 71.0062C1778.26 76.2103 1776.35 82.115 1776.35 88.7202C1776.15 94.2246 1777.31 99.0284 1779.81 103.132C1782.42 107.235 1785.97 110.788 1790.48 113.79C1794.99 116.692 1800.2 119.244 1806.12 121.446C1812.03 123.548 1818.34 125.349 1825.05 126.85L1852.71 133.456C1866.14 136.458 1878.46 140.461 1889.69 145.465C1900.91 150.469 1910.63 156.624 1918.85 163.93C1927.06 171.235 1933.43 179.842 1937.94 189.75C1942.54 199.658 1944.9 211.017 1945 223.827C1944.9 242.642 1940.09 258.955 1930.57 272.766C1921.15 286.477 1907.52 297.135 1889.69 304.741C1871.95 312.247 1850.56 316 1825.51 316C1800.65 316 1779.01 312.197 1760.57 304.591C1742.23 296.985 1727.91 285.726 1717.58 270.814C1707.36 255.802 1702 237.238 1701.5 215.12H1764.48C1765.18 225.428 1768.14 234.035 1773.35 240.941C1778.66 247.746 1785.72 252.9 1794.54 256.403C1803.46 259.806 1813.53 261.507 1824.75 261.507C1835.78 261.507 1845.35 259.906 1853.46 256.703C1861.68 253.501 1868.04 249.047 1872.55 243.343C1877.06 237.638 1879.32 231.083 1879.32 223.677C1879.32 216.772 1877.26 210.967 1873.15 206.263C1869.14 201.559 1863.23 197.556 1855.42 194.254C1847.7 190.951 1838.23 187.949 1827.01 185.247L1793.49 176.84C1767.54 170.535 1747.04 160.677 1732.01 147.267C1716.98 133.856 1709.52 115.792 1709.62 93.0736C1709.52 74.4589 1714.48 58.196 1724.5 44.285C1734.62 30.374 1748.5 19.5154 1766.13 11.7093C1783.77 3.90309 1803.81 0 1826.26 0C1849.1 0 1869.04 3.90309 1886.08 11.7093C1903.21 19.5154 1916.54 30.374 1926.06 44.285C1935.58 58.196 1940.49 74.3088 1940.79 92.6233H1878.41Z" fill="#01B685"/>
</g>
</svg>
