<svg width="103" height="103" viewBox="0 0 103 103" fill="none" xmlns="http://www.w3.org/2000/svg">
<path fill-rule="evenodd" clip-rule="evenodd" d="M35.0483 0.0326783C33.6926 0.137581 32.856 0.283766 31.6819 0.620752C27.6596 1.7755 24.2279 4.84639 22.3887 8.93736C21.1506 11.691 20.5212 14.9759 20.636 18.0841C20.659 18.7071 20.703 19.4292 20.7338 19.6888C20.7645 19.9483 20.7816 20.1688 20.7717 20.1788C20.7618 20.1887 20.1365 20.1666 19.3821 20.1297C17.2496 20.0254 15.3071 20.1648 13.1269 20.5787C12.7634 20.6477 12.3493 20.7423 12.2067 20.7888C12.0641 20.8353 11.719 20.9343 11.4398 21.0088C10.349 21.2999 8.62252 22.017 7.5503 22.6245C5.92797 23.5436 4.2588 24.9514 3.13372 26.3496C0.961027 29.0498 -0.227908 32.8732 0.0364192 36.3101C0.443667 41.6049 3.12572 46.5635 7.89262 50.8342L8.47059 51.352L8.11475 51.6745C6.19477 53.4145 4.57911 55.2321 3.43149 56.9429C1.6029 59.6689 0.564693 62.3581 0.103183 65.5642C-0.011496 66.3608 0.00798727 68.5364 0.136946 69.34C0.314836 70.4479 0.481366 71.16 0.755149 71.983C2.03553 75.8321 4.75382 78.8068 8.70877 80.6867C11.6324 82.0765 15.4191 82.7809 18.7902 82.5623C19.4597 82.5189 20.1502 82.4597 20.3247 82.4309C20.4992 82.4021 20.665 82.3999 20.6931 82.4261C20.7211 82.4523 20.7101 82.9664 20.6687 83.5685C20.5076 85.9086 20.7522 88.7037 21.3071 90.864C22.1716 94.2304 23.7597 97.0286 25.978 99.0946C28.1557 101.123 30.5536 102.287 33.7156 102.852C34.5027 102.992 36.5657 103.044 37.5243 102.948C40.1561 102.683 43.0664 101.711 45.3679 100.329C45.6958 100.132 46.0641 99.9115 46.1863 99.8395C46.6345 99.5753 48.0147 98.5611 48.7187 97.9787C49.5056 97.3279 50.9852 95.9039 51.6873 95.1217L52.1282 94.6304L53.1079 95.6519C56.7764 99.4773 60.6925 101.796 64.9455 102.662C66.3969 102.958 67.2455 103.031 68.7463 102.989C70.5027 102.941 71.8338 102.69 73.4123 102.111C78.9164 100.09 82.51 95.1783 83.4799 88.3491C83.6591 87.0876 83.6596 83.8209 83.4809 82.6495C83.4748 82.609 83.834 82.5939 84.4868 82.6073C86.7444 82.6532 89.3882 82.3218 91.4361 81.7361C95.2998 80.6312 98.3288 78.5711 100.456 75.6014C101.68 73.8928 102.589 71.5311 102.901 69.2488C103.014 68.4225 103.028 66.4269 102.926 65.5642C102.744 64.011 102.241 62.1461 101.577 60.5645C100.302 57.5254 98.1408 54.5878 95.2444 51.9561L94.5786 51.351L95.7123 50.2637C97.8546 48.2092 99.0967 46.6595 100.523 44.2626C101.666 42.3398 102.584 39.6487 102.896 37.3014C103.02 36.3678 103.036 34.5239 102.927 33.6276C102.741 32.0927 102.24 30.3654 101.59 29.0152C99.7671 25.2295 96.2296 22.357 91.7534 21.0277C90.5494 20.6701 90.4328 20.6428 89.2783 20.448C87.5699 20.1597 86.9655 20.1098 85.2166 20.1123L83.5983 20.1146V17.9666C83.5983 15.586 83.556 15.082 83.2073 13.3014C82.4714 9.54463 80.9586 6.58475 78.5573 4.20376C77.6872 3.34093 77.0691 2.8375 76.2104 2.29215C73.5146 0.580226 70.3955 -0.189588 67.1322 0.0517459C64.7598 0.227256 62.7404 0.777572 60.4103 1.88381C57.9377 3.05763 55.9984 4.47448 53.5919 6.86554L52.0809 8.36684L51.7888 8.03376C51.2773 7.45053 49.3475 5.57121 48.7883 5.11164C46.0359 2.84983 43.3398 1.39491 40.4654 0.620123C38.656 0.132421 36.6172 -0.0886493 35.0483 0.0326783ZM69.6997 7.97448C71.6579 8.39428 73.2073 9.37786 74.3736 10.9416C74.8571 11.5899 75.1346 12.1114 75.4648 12.992C75.9324 14.239 76.103 15.3195 76.0998 17.0143C76.0967 18.6421 75.8946 20.0926 75.4511 21.671L75.2743 22.3003L74.7716 22.5519C73.6568 23.1101 72.2078 23.8754 71.6988 24.1749C70.3063 24.9944 68.3391 26.3559 66.7486 27.6008C66.1369 28.0796 64.6967 29.3234 63.7341 30.2042C61.1199 32.5961 58.3163 35.6725 55.6743 39.0481C55.4061 39.3908 53.8287 41.4922 53.4783 41.9736C52.9751 42.6651 51.5039 44.8065 51.073 45.475C50.8461 45.8269 50.6409 46.1158 50.6171 46.1169C50.5035 46.1225 47.4317 43.9114 45.7759 42.6322C45.0816 42.0959 43.1718 40.5706 42.7025 40.1777C40.3956 38.2465 37.204 35.1956 35.6857 33.4703C31.5881 28.8139 29.142 24.3963 28.2639 20.0663C27.7541 17.5526 27.8051 14.7058 28.3914 12.9561C29.1599 10.6626 30.7618 9.01665 32.8937 8.32996C33.8161 8.03288 34.5511 7.92149 35.5878 7.92162C36.6148 7.92174 37.3731 8.02866 38.4658 8.32732C40.302 8.82925 41.7541 9.55797 43.8009 11.0045C45.2798 12.0498 47.6754 14.5087 48.986 16.3266C49.94 17.6499 51.071 19.5362 51.7457 20.9287C51.9167 21.2819 52.0753 21.5722 52.0981 21.5737C52.1208 21.5753 52.169 21.4987 52.205 21.4036C52.6329 20.2731 53.6404 18.2187 54.3112 17.1087C56.2384 13.9197 58.369 11.6519 61.0637 9.92126C62.2594 9.15339 64.053 8.38874 65.4158 8.06591C66.6504 7.77342 68.5705 7.73245 69.6997 7.97448ZM88.3581 27.4574C90.351 27.8133 91.6406 28.3921 92.7964 29.4493C93.6355 30.217 94.446 31.5171 94.6999 32.5032C94.8872 33.2304 95.0535 34.3639 95.0528 34.9081C95.0521 35.4951 94.8732 36.771 94.6769 37.5885C94.2503 39.3653 92.9583 41.8204 91.5366 43.5556C91.2544 43.9 90.9291 44.2991 90.8138 44.4425C90.2721 45.1153 88.4581 46.7835 87.3109 47.6639C86.8512 48.0166 85.3704 49.0444 85.0262 49.2497C83.9352 49.9 83.2475 50.2829 82.2987 50.768C81.4354 51.2093 81.2172 51.3451 81.315 51.38C81.7525 51.5364 83.2057 52.1705 83.827 52.4762C90.6066 55.8114 94.802 60.9892 95.1542 66.456C95.2715 68.2758 94.6727 70.4065 93.6746 71.7216C92.1978 73.6672 90.1175 74.7798 87.4245 75.0643C86.5565 75.1561 85.2064 75.1441 84.2012 75.0358C83.0783 74.9149 82.7486 74.8583 81.7373 74.6132L80.8917 74.4082L80.6027 73.8721C78.6187 70.1925 76.4628 67.2432 73.2909 63.8696C70.7958 61.216 67.8137 58.526 64.5908 56.0219C63.544 55.2086 61.5475 53.7249 61.0686 53.4045C60.929 53.311 60.6291 53.1013 60.4022 52.9384C59.9071 52.5828 57.3087 50.8511 56.7054 50.4748C56.4698 50.3278 56.277 50.1832 56.277 50.1534C56.277 49.9794 59.4034 45.7955 61.0972 43.7027C61.4305 43.2909 61.7737 42.8661 61.8597 42.7588C62.1865 42.3512 63.1178 41.2814 64.5491 39.6692C65.2324 38.8996 67.6363 36.5054 68.5573 35.6773C72.3218 32.2921 75.7275 30.0768 79.2592 28.716C81.1339 27.9936 82.9012 27.5841 85.1849 27.3428C85.742 27.2839 87.8037 27.3584 88.3581 27.4574ZM19.8487 27.828C20.785 27.9786 22.1674 28.2923 22.8319 28.505L23.4353 28.698L23.8156 29.4311C24.5579 30.8617 25.9234 33.003 27.0534 34.5086C31.0255 39.8008 36.7801 45.0805 43.9016 49.966C45.0524 50.7555 46.7049 51.8447 46.9369 51.9665C47.0282 52.0144 47.0708 52.0799 47.0483 52.1379C47.0092 52.2389 46.5741 52.8614 45.9641 53.6889C45.7547 53.973 45.3692 54.5028 45.1074 54.8662C44.6677 55.4765 44.1894 56.1097 42.9496 57.723C41.9353 59.0428 40.2286 61.0797 38.8898 62.5684C37.2423 64.4003 33.9687 67.5815 32.8383 68.449C32.7184 68.541 32.3526 68.83 32.0256 69.0914C30.9649 69.9387 30.8922 69.9923 29.6666 70.8289C26.7362 72.8293 23.4082 74.3467 20.6712 74.9302C19.0987 75.2656 18.3031 75.3488 16.6755 75.3486C15.4384 75.3484 15.004 75.3255 14.5495 75.236C13.03 74.9368 12.0666 74.569 11.056 73.9022C8.2147 72.0275 7.26541 68.326 8.59047 64.2886C9.02247 62.9721 9.94441 61.1814 10.7373 60.1185C11.4185 59.2053 11.6894 58.8671 12.1676 58.3324C14.4243 55.8095 17.1935 53.7296 20.6534 51.9586L21.8072 51.368L21.066 51.0622C20.14 50.6802 18.0168 49.6411 17.3419 49.2397C12.9339 46.618 9.89923 43.2745 8.57093 39.5763C8.02552 38.0576 7.76963 36.3059 7.90646 35.0278C8.08117 33.3953 8.45726 32.287 9.22987 31.1275C9.58927 30.5882 10.5112 29.6663 11.1062 29.2513C12.2058 28.4843 13.8461 27.9248 15.5966 27.7194C16.1443 27.6552 19.2705 27.735 19.8487 27.828ZM52.8342 56.2979C52.9319 56.3584 53.2927 56.6062 53.6359 56.8485C53.9791 57.0908 54.3827 57.374 54.5327 57.4778C55.2076 57.9448 55.515 58.1689 57.0069 59.2819C59.2961 60.9896 61.1207 62.4235 61.9915 63.1992C62.1501 63.3405 62.4923 63.6401 62.752 63.8651C63.0117 64.0901 63.4817 64.4982 63.7964 64.7722C65.0879 65.8961 68.3726 69.2525 69.3823 70.48C69.4522 70.5649 69.6408 70.7891 69.8016 70.9783C70.1255 71.3593 71.2948 72.9067 71.8038 73.6277C72.5917 74.744 73.7574 76.7643 74.3751 78.0842C75.3031 80.0673 75.9999 82.4798 76.2751 84.6632C76.3794 85.4906 76.38 87.607 76.2761 88.2502C75.7775 91.338 74.337 93.4202 71.9748 94.4676C71.3252 94.7556 70.1327 95.005 69.1602 95.0561C66.241 95.2094 62.8914 93.914 59.758 91.4199C58.9691 90.792 57.202 89.0592 56.4613 88.1873C55.0573 86.5343 53.7682 84.5642 52.6882 82.4204C52.4552 81.958 52.2344 81.5428 52.1976 81.4976C52.1469 81.4355 52.0809 81.5353 51.9274 81.9066C51.4982 82.9447 51.3626 83.2432 50.9182 84.1279C48.2362 89.4671 44.236 93.2775 39.8399 94.6807C39.6828 94.7309 39.183 94.8571 38.7293 94.9613C38.0255 95.1228 37.7317 95.1556 36.7301 95.1846C35.4554 95.2214 34.966 95.165 33.855 94.8531C31.2773 94.1294 29.3748 92.0832 28.5689 89.1676C28.2269 87.9303 28.1418 87.1116 28.1857 85.4813C28.2345 83.6682 28.4396 82.4954 29.0624 80.4693C29.3172 79.6403 29.3342 79.6069 29.5536 79.504C30.5904 79.0178 33.0193 77.514 34.4772 76.4557C37.7734 74.0627 40.9935 71.0871 44.1181 67.5465C44.963 66.5891 45.3343 66.1525 45.9641 65.3754C46.0689 65.2462 46.3703 64.8747 46.6339 64.55C47.3582 63.6579 47.8409 63.0284 48.8518 61.6577C50.1919 59.8405 50.454 59.467 51.5955 57.7476C52.1633 56.8923 52.6343 56.1914 52.6422 56.1901C52.6501 56.1888 52.7365 56.2373 52.8342 56.2979Z" fill="#28D2A4"/>
</svg>
