<svg width="125" height="39" viewBox="0 0 125 39" fill="none" xmlns="http://www.w3.org/2000/svg">
<path fill-rule="evenodd" clip-rule="evenodd" d="M13.2707 0.0123733C12.7574 0.0520939 12.4406 0.107445 11.9961 0.235042C10.473 0.672278 9.17368 1.83504 8.47727 3.38405C8.00849 4.42667 7.77016 5.6705 7.81363 6.84736C7.82235 7.08326 7.83901 7.35668 7.85066 7.45497C7.86229 7.55326 7.86876 7.63675 7.86501 7.64051C7.86126 7.64428 7.62449 7.63591 7.33887 7.62193C6.53141 7.58242 5.7959 7.63522 4.97039 7.79194C4.83273 7.81808 4.67593 7.85387 4.62196 7.87147C4.56796 7.88908 4.43729 7.92659 4.33156 7.9548C3.91855 8.065 3.26484 8.33654 2.85885 8.56655C2.24457 8.91455 1.61256 9.44762 1.18655 9.97705C0.363884 10.9994 -0.0862954 12.4471 0.0137898 13.7485C0.167991 15.7533 1.18352 17.6308 2.98847 19.2479L3.20731 19.444L3.07257 19.5661C2.34559 20.2249 1.73384 20.9131 1.2993 21.5609C0.606923 22.5931 0.213816 23.6113 0.0390694 24.8253C-0.00435286 25.1269 0.00302431 25.9507 0.0518534 26.2549C0.11921 26.6744 0.182265 26.9441 0.28593 27.2557C0.770736 28.7131 1.79999 29.8395 3.2975 30.5513C4.40451 31.0775 5.83829 31.3442 7.11474 31.2614C7.36823 31.245 7.62968 31.2226 7.69576 31.2117C7.76185 31.2008 7.82461 31.2 7.83523 31.2099C7.84585 31.2198 7.8417 31.4145 7.82601 31.6424C7.76502 32.5285 7.85763 33.5868 8.06772 34.4048C8.39509 35.6795 8.99639 36.739 9.83633 37.5212C10.6609 38.2891 11.5689 38.73 12.7661 38.9439C13.0641 38.9971 13.8453 39.0168 14.2082 38.9803C15.2047 38.8799 16.3067 38.512 17.1781 37.9885C17.3023 37.9139 17.4417 37.8306 17.488 37.8033C17.6577 37.7033 18.1803 37.3192 18.4469 37.0987C18.7448 36.8523 19.3051 36.3131 19.5709 36.017L19.7379 35.8309L20.1088 36.2177C21.4979 37.6662 22.9806 38.5443 24.591 38.8721C25.1406 38.984 25.4619 39.0117 26.0302 38.996C26.6952 38.9776 27.1992 38.8827 27.7969 38.6633C29.881 37.8983 31.2417 36.0384 31.6089 33.4526C31.6767 32.9749 31.677 31.738 31.6093 31.2945C31.607 31.2791 31.743 31.2734 31.9901 31.2785C32.845 31.2959 33.846 31.1704 34.6214 30.9486C36.0844 30.5303 37.2313 29.7502 38.0367 28.6258C38.5001 27.9788 38.8443 27.0846 38.9624 26.2204C39.0052 25.9076 39.0104 25.1519 38.9721 24.8253C38.9031 24.2372 38.7125 23.5311 38.4612 22.9322C37.9784 21.7815 37.1601 20.6692 36.0634 19.6727L35.8113 19.4436L36.2406 19.0319C37.0518 18.254 37.5221 17.6672 38.062 16.7596C38.495 16.0316 38.8425 15.0126 38.9607 14.1238C39.0078 13.7704 39.0136 13.0722 38.9725 12.7328C38.9019 12.1516 38.7123 11.4976 38.4661 10.9863C37.7759 9.55291 36.4364 8.46528 34.7416 7.96195C34.2857 7.82656 34.2415 7.81622 33.8044 7.74245C33.1575 7.63329 32.9287 7.61437 32.2665 7.61533L31.6537 7.61621V6.80288C31.6537 5.90148 31.6377 5.71065 31.5057 5.03647C31.227 3.61398 30.6542 2.49325 29.745 1.59171C29.4156 1.26501 29.1815 1.07439 28.8564 0.867903C27.8356 0.219697 26.6546 -0.0717857 25.419 0.0195931C24.5207 0.0860482 23.7561 0.29442 22.8738 0.713286C21.9376 1.15774 21.2033 1.69422 20.2921 2.59957L19.72 3.16803L19.6094 3.04191C19.4157 2.82107 18.685 2.10949 18.4732 1.93547C17.4311 1.07906 16.4102 0.528169 15.3219 0.234804C14.6367 0.0501401 13.8648 -0.0335662 13.2707 0.0123733ZM26.3911 3.01946C27.1326 3.17842 27.7193 3.55084 28.1609 4.14293C28.3439 4.38841 28.449 4.58586 28.574 4.91928C28.7511 5.39145 28.8157 5.80057 28.8145 6.44229C28.8133 7.05867 28.7368 7.60789 28.5689 8.20554L28.5019 8.44381L28.3116 8.53907C27.8895 8.75043 27.3408 9.04019 27.1481 9.15361C26.6208 9.4639 25.876 9.9794 25.2737 10.4508C25.0421 10.6321 24.4968 11.103 24.1323 11.4365C23.1425 12.3422 22.0809 13.5071 21.0805 14.7852C20.979 14.915 20.3818 15.7106 20.2491 15.8929C20.0585 16.1548 19.5015 16.9656 19.3383 17.2187C19.2524 17.3519 19.1747 17.4613 19.1657 17.4617C19.1227 17.4639 17.9596 16.6267 17.3326 16.1423C17.0697 15.9392 16.3466 15.3617 16.1689 15.2129C15.2954 14.4817 14.087 13.3265 13.5121 12.6732C11.9605 10.9101 11.0344 9.23744 10.7018 7.59793C10.5088 6.64614 10.5281 5.5682 10.7501 4.90573C11.0411 4.03728 11.6477 3.41407 12.4549 3.15406C12.8042 3.04157 13.0825 2.9994 13.475 2.99945C13.8639 2.99949 14.151 3.03998 14.5647 3.15306C15.26 3.34311 15.8098 3.61904 16.5848 4.16676C17.1448 4.56256 18.0518 5.49358 18.5481 6.18191C18.9093 6.68298 19.3376 7.39719 19.593 7.92447C19.6578 8.05821 19.7178 8.1681 19.7265 8.1687C19.7351 8.16929 19.7533 8.1403 19.7669 8.10427C19.929 7.67621 20.3105 6.89835 20.5645 6.47804C21.2941 5.27057 22.1009 4.4119 23.1212 3.75659C23.5739 3.46585 24.2531 3.17632 24.7691 3.05408C25.2366 2.94333 25.9636 2.92782 26.3911 3.01946ZM33.456 10.3965C34.2106 10.5313 34.6989 10.7504 35.1365 11.1507C35.4542 11.4414 35.7611 11.9337 35.8572 12.307C35.9282 12.5824 35.9911 13.0116 35.9909 13.2176C35.9906 13.4399 35.9228 13.923 35.8485 14.2325C35.687 14.9053 35.1978 15.8349 34.6595 16.4919C34.5527 16.6223 34.4295 16.7735 34.3858 16.8277C34.1807 17.0825 33.4938 17.7141 33.0595 18.0475C32.8854 18.1811 32.3247 18.5702 32.1944 18.6479C31.7813 18.8942 31.5209 19.0392 31.1616 19.2228C30.8347 19.3899 30.7522 19.4413 30.7892 19.4546C30.9548 19.5138 31.5051 19.7539 31.7403 19.8696C34.3074 21.1325 35.8959 23.093 36.0293 25.1629C36.0737 25.852 35.8469 26.6588 35.469 27.1567C34.9099 27.8934 34.1222 28.3147 33.1025 28.4224C32.7738 28.4572 32.2626 28.4526 31.882 28.4116C31.4568 28.3658 31.332 28.3444 30.9491 28.2516L30.6289 28.174L30.5195 27.971C29.7682 26.5777 28.9519 25.461 27.7509 24.1836C26.8062 23.1789 25.677 22.1603 24.4567 21.2122C24.0604 20.9042 23.3044 20.3425 23.1231 20.2211C23.0702 20.1857 22.9566 20.1063 22.8707 20.0446C22.6833 19.91 21.6994 19.2543 21.471 19.1118C21.3818 19.0561 21.3088 19.0014 21.3088 18.9901C21.3088 18.9243 22.4926 17.3401 23.1339 16.5476C23.2601 16.3917 23.39 16.2309 23.4226 16.1902C23.5463 16.0359 23.899 15.6308 24.4409 15.0204C24.6997 14.729 25.6099 13.8224 25.9586 13.5089C27.384 12.2271 28.6735 11.3883 30.0108 10.873C30.7206 10.5995 31.3898 10.4444 32.2545 10.3531C32.4654 10.3308 33.2461 10.359 33.456 10.3965ZM7.51554 10.5368C7.87005 10.5938 8.39347 10.7126 8.64509 10.7931L8.87355 10.8662L9.01756 11.1438C9.29864 11.6855 9.81564 12.4963 10.2435 13.0664C11.7475 15.0702 13.9264 17.0693 16.6229 18.9192C17.0587 19.2181 17.6844 19.6305 17.7722 19.6766C17.8068 19.6948 17.8229 19.7196 17.8144 19.7415C17.7996 19.7798 17.6349 20.0155 17.4039 20.3288C17.3246 20.4364 17.1786 20.637 17.0795 20.7746C16.913 21.0057 16.7319 21.2454 16.2625 21.8563C15.8784 22.356 15.2322 23.1273 14.7253 23.6909C14.1015 24.3846 12.8619 25.5891 12.4339 25.9176C12.3885 25.9524 12.25 26.0619 12.1262 26.1608C11.7246 26.4817 11.6971 26.5019 11.233 26.8187C10.1234 27.5761 8.86329 28.1507 7.82697 28.3716C7.23155 28.4986 6.93031 28.5301 6.31404 28.5301C5.84562 28.53 5.68111 28.5213 5.50903 28.4874C4.9337 28.3741 4.56893 28.2349 4.18625 27.9824C3.11042 27.2726 2.75098 25.871 3.2527 24.3423C3.41628 23.8438 3.76536 23.1658 4.06557 22.7633C4.32351 22.4175 4.42607 22.2895 4.60716 22.087C5.46164 21.1318 6.51014 20.3442 7.82024 19.6736L8.2571 19.45L7.97643 19.3342C7.62583 19.1896 6.82189 18.7961 6.56635 18.6442C4.89732 17.6515 3.74825 16.3855 3.2453 14.9852C3.03879 14.4102 2.9419 13.7469 2.99371 13.2629C3.05986 12.6448 3.20226 12.2252 3.49481 11.7861C3.63089 11.5819 3.97997 11.2329 4.20525 11.0757C4.6216 10.7853 5.24268 10.5735 5.90552 10.4957C6.1129 10.4714 7.2966 10.5016 7.51554 10.5368ZM20.0052 21.3167C20.0422 21.3396 20.1788 21.4334 20.3087 21.5252C20.4387 21.6169 20.5915 21.7241 20.6483 21.7634C20.9039 21.9403 21.0202 22.0251 21.5851 22.4465C22.4519 23.0931 23.1428 23.6361 23.4725 23.9298C23.5325 23.9833 23.6621 24.0967 23.7604 24.1819C23.8588 24.2671 24.0368 24.4217 24.1559 24.5254C24.6449 24.951 25.8886 26.2218 26.271 26.6866C26.2974 26.7187 26.3689 26.8036 26.4297 26.8753C26.5524 27.0195 26.9951 27.6054 27.1878 27.8785C27.4862 28.3011 27.9276 29.0661 28.1614 29.5658C28.5128 30.3168 28.7766 31.2302 28.8809 32.057C28.9203 32.3702 28.9206 33.1716 28.8813 33.4151C28.6924 34.5843 28.147 35.3727 27.2526 35.7693C27.0066 35.8783 26.5551 35.9728 26.1869 35.9921C25.0815 36.0501 23.8133 35.5597 22.6268 34.6153C22.3281 34.3775 21.659 33.7215 21.3786 33.3913C20.8469 32.7654 20.3589 32.0194 19.9499 31.2077C19.8617 31.0327 19.7781 30.8754 19.7641 30.8583C19.7449 30.8348 19.72 30.8726 19.6618 31.0132C19.4993 31.4062 19.448 31.5193 19.2797 31.8543C18.2642 33.8759 16.7496 35.3187 15.085 35.85C15.0255 35.869 14.8363 35.9168 14.6645 35.9562C14.398 36.0174 14.2867 36.0298 13.9075 36.0408C13.4249 36.0547 13.2395 36.0333 12.8189 35.9153C11.8429 35.6412 11.1225 34.8664 10.8173 33.7625C10.6878 33.294 10.6556 32.984 10.6722 32.3667C10.6907 31.6802 10.7684 31.2361 11.0042 30.469C11.1007 30.1551 11.1071 30.1424 11.1902 30.1035C11.5828 29.9194 12.5024 29.35 13.0545 28.9492C14.3026 28.0432 15.5218 26.9165 16.7049 25.5758C17.0248 25.2134 17.1654 25.048 17.4039 24.7538C17.4436 24.7049 17.5577 24.5642 17.6575 24.4413C17.9317 24.1035 18.1145 23.8651 18.4973 23.3461C19.0047 22.6581 19.104 22.5166 19.5362 21.8656C19.7512 21.5417 19.9295 21.2764 19.9325 21.2759C19.9355 21.2754 19.9682 21.2937 20.0052 21.3167Z" fill="#009B71"/>
<path d="M53.321 26V15.0909H55.892V26H53.321ZM54.6136 13.5426C54.2064 13.5426 53.8561 13.4077 53.5625 13.1378C53.2689 12.8632 53.1222 12.5341 53.1222 12.1506C53.1222 11.7623 53.2689 11.4332 53.5625 11.1634C53.8561 10.8887 54.2064 10.7514 54.6136 10.7514C55.0256 10.7514 55.3759 10.8887 55.6648 11.1634C55.9583 11.4332 56.1051 11.7623 56.1051 12.1506C56.1051 12.5341 55.9583 12.8632 55.6648 13.1378C55.3759 13.4077 55.0256 13.5426 54.6136 13.5426ZM59.5174 26H56.7049L61.8256 11.4545H65.0785L70.2063 26H67.3938L63.5089 14.4375H63.3952L59.5174 26ZM59.6097 20.2969H67.2802V22.4134H59.6097V20.2969ZM75.435 26.2131C74.346 26.2131 73.4109 25.974 72.6296 25.4957C71.8531 25.0175 71.2541 24.357 70.8327 23.5142C70.4161 22.6667 70.2077 21.6913 70.2077 20.5881C70.2077 19.4801 70.4208 18.5024 70.8469 17.6548C71.2731 16.8026 71.8744 16.1397 72.6509 15.6662C73.4322 15.188 74.3555 14.9489 75.4208 14.9489C76.3062 14.9489 77.0898 15.1122 77.7717 15.4389C78.4582 15.7609 79.0051 16.2178 79.4123 16.8097C79.8195 17.3968 80.0515 18.0833 80.1083 18.8693H77.6509C77.5515 18.3437 77.3147 17.9058 76.9407 17.5554C76.5714 17.2003 76.0766 17.0227 75.4563 17.0227C74.9308 17.0227 74.4691 17.1648 74.0714 17.4489C73.6737 17.7282 73.3635 18.1307 73.141 18.6562C72.9232 19.1818 72.8143 19.8116 72.8143 20.5455C72.8143 21.2888 72.9232 21.928 73.141 22.4631C73.3588 22.9934 73.6642 23.4029 74.0572 23.6918C74.4549 23.9759 74.9213 24.1179 75.4563 24.1179C75.8351 24.1179 76.1737 24.0469 76.4719 23.9048C76.775 23.758 77.0283 23.5473 77.2319 23.2727C77.4355 22.9981 77.5752 22.6643 77.6509 22.2713H80.1083C80.0468 23.0431 79.8195 23.7273 79.4265 24.3239C79.0335 24.9157 78.4985 25.3797 77.8214 25.7159C77.1443 26.0473 76.3488 26.2131 75.435 26.2131ZM86.6669 15.0909V17.0795H80.3956V15.0909H86.6669ZM81.9439 12.4773H84.5149V22.7188C84.5149 23.0644 84.567 23.3295 84.6712 23.5142C84.7801 23.6941 84.9221 23.8172 85.0973 23.8835C85.2725 23.9498 85.4666 23.983 85.6797 23.983C85.8407 23.983 85.9875 23.9711 86.12 23.9474C86.2573 23.9238 86.3615 23.9025 86.4325 23.8835L86.8658 25.8935C86.7285 25.9408 86.532 25.9929 86.2763 26.0497C86.0253 26.1065 85.7176 26.1397 85.353 26.1491C84.709 26.1681 84.129 26.071 83.6129 25.858C83.0968 25.6402 82.6873 25.304 82.3842 24.8494C82.0859 24.3949 81.9392 23.8267 81.9439 23.1449V12.4773ZM87.8171 26V15.0909H90.3881V26H87.8171ZM89.1097 13.5426C88.7025 13.5426 88.3522 13.4077 88.0586 13.1378C87.765 12.8632 87.6183 12.5341 87.6183 12.1506C87.6183 11.7623 87.765 11.4332 88.0586 11.1634C88.3522 10.8887 88.7025 10.7514 89.1097 10.7514C89.5217 10.7514 89.872 10.8887 90.1609 11.1634C90.4544 11.4332 90.6012 11.7623 90.6012 12.1506C90.6012 12.5341 90.4544 12.8632 90.1609 13.1378C89.872 13.4077 89.5217 13.5426 89.1097 13.5426ZM96.7905 26.2131C95.7251 26.2131 94.8018 25.9787 94.0206 25.5099C93.2393 25.0412 92.6333 24.3854 92.2024 23.5426C91.7763 22.6998 91.5632 21.715 91.5632 20.5881C91.5632 19.4612 91.7763 18.474 92.2024 17.6264C92.6333 16.7789 93.2393 16.1207 94.0206 15.652C94.8018 15.1832 95.7251 14.9489 96.7905 14.9489C97.8558 14.9489 98.7791 15.1832 99.5604 15.652C100.342 16.1207 100.945 16.7789 101.371 17.6264C101.802 18.474 102.018 19.4612 102.018 20.5881C102.018 21.715 101.802 22.6998 101.371 23.5426C100.945 24.3854 100.342 25.0412 99.5604 25.5099C98.7791 25.9787 97.8558 26.2131 96.7905 26.2131ZM96.8047 24.1534C97.3823 24.1534 97.8653 23.9948 98.2536 23.6776C98.6418 23.3556 98.9306 22.9247 99.12 22.3849C99.3142 21.8452 99.4112 21.2438 99.4112 20.581C99.4112 19.9134 99.3142 19.3097 99.12 18.7699C98.9306 18.2254 98.6418 17.7921 98.2536 17.4702C97.8653 17.1482 97.3823 16.9872 96.8047 16.9872C96.2128 16.9872 95.7204 17.1482 95.3274 17.4702C94.9392 17.7921 94.648 18.2254 94.4538 18.7699C94.2644 19.3097 94.1697 19.9134 94.1697 20.581C94.1697 21.2438 94.2644 21.8452 94.4538 22.3849C94.648 22.9247 94.9392 23.3556 95.3274 23.6776C95.7204 23.9948 96.2128 24.1534 96.8047 24.1534ZM105.771 19.608V26H103.2V15.0909H105.657V16.9446H105.785C106.036 16.3338 106.436 15.8485 106.985 15.4886C107.539 15.1288 108.224 14.9489 109.038 14.9489C109.791 14.9489 110.447 15.1098 111.005 15.4318C111.569 15.7538 112.004 16.2202 112.312 16.831C112.625 17.4418 112.779 18.1828 112.774 19.054V26H110.203V19.4517C110.203 18.7225 110.013 18.152 109.635 17.7401C109.261 17.3281 108.742 17.1222 108.079 17.1222C107.629 17.1222 107.229 17.2216 106.879 17.4205C106.533 17.6146 106.261 17.8963 106.062 18.2656C105.868 18.6349 105.771 19.0824 105.771 19.608ZM123.01 17.9744L120.666 18.2301C120.6 17.9934 120.484 17.7708 120.318 17.5625C120.157 17.3542 119.939 17.1861 119.664 17.0582C119.39 16.9304 119.054 16.8665 118.656 16.8665C118.121 16.8665 117.671 16.9825 117.306 17.2145C116.947 17.4465 116.769 17.7472 116.774 18.1165C116.769 18.4337 116.885 18.6918 117.122 18.8906C117.363 19.0895 117.761 19.2528 118.315 19.3807L120.176 19.7784C121.208 20.0009 121.975 20.3537 122.477 20.8366C122.984 21.3196 123.239 21.9517 123.244 22.733C123.239 23.4195 123.038 24.0256 122.64 24.5511C122.247 25.072 121.7 25.4792 121 25.7727C120.299 26.0663 119.494 26.2131 118.585 26.2131C117.25 26.2131 116.175 25.9337 115.36 25.375C114.546 24.8116 114.061 24.0279 113.904 23.0241L116.412 22.7827C116.525 23.2751 116.767 23.6468 117.136 23.8977C117.505 24.1487 117.986 24.2741 118.578 24.2741C119.189 24.2741 119.679 24.1487 120.048 23.8977C120.422 23.6468 120.609 23.3366 120.609 22.9673C120.609 22.6548 120.488 22.3968 120.247 22.1932C120.01 21.9896 119.641 21.8333 119.139 21.7244L117.278 21.3338C116.232 21.116 115.458 20.7491 114.956 20.233C114.454 19.7121 114.205 19.054 114.21 18.2585C114.205 17.5862 114.387 17.0038 114.757 16.5114C115.131 16.0142 115.649 15.6307 116.312 15.3608C116.98 15.0862 117.749 14.9489 118.62 14.9489C119.899 14.9489 120.905 15.2211 121.639 15.7656C122.377 16.3101 122.834 17.0464 123.01 17.9744Z" fill="black"/>
</svg>
