<svg width="100" height="66" viewBox="0 0 100 66" fill="none" xmlns="http://www.w3.org/2000/svg">
<path d="M69.2681 61.9491H20.7495C20.7495 61.9491 19.7927 50.9252 20.7494 45.0418C22.4778 34.4134 33.775 24.7485 48.2474 34.6933C56.1692 40.1368 57.8596 52.5888 50.0846 52.5888C42.4287 52.5888 44.131 39.6234 51.9314 33.9577C66.1819 23.607 77.306 33.6665 79.0078 44.7287C79.9499 50.8522 79.0066 61.9491 79.0066 61.9491H75.895" stroke="black" stroke-width="2"/>
<circle cx="49.4137" cy="14.3903" r="12.3903" stroke="black" stroke-width="2"/>
<path d="M54 7.49996C52.4 11.5 44 15 38.5 12.5C41 4.99996 46.0425 2.81771 51.5 3.49996C55.5 4 59 7.83329 60 9.99996C57.5 11.5 55 9.99996 54 7.49996Z" fill="url(#paint0_linear_382_1231)"/>
<circle cx="87.9794" cy="25.1074" r="5.99892" stroke="black" stroke-width="2"/>
<path d="M79.4256 52.3254C71.649 52.3254 72.4751 42.9129 78.136 38.5507C88.4779 30.5815 96.5509 38.3265 97.7859 46.8435C98.4696 51.5582 96.5338 61.6573 96.5338 61.6573H85.6466" stroke="black" stroke-width="2"/>
<circle cx="6.99892" cy="6.99892" r="5.99892" transform="matrix(-1 0 0 1 18.6123 18.1086)" stroke="black" stroke-width="2"/>
<path d="M20.1672 52.3255C27.9438 52.3255 27.1177 42.913 21.4568 38.5508C11.1149 30.5816 3.0419 38.3266 1.80682 46.8437C1.12314 51.5583 3.05896 61.6574 3.05896 61.6574H13.9462" stroke="black" stroke-width="2"/>
<circle cx="11" cy="25" r="4" fill="url(#paint1_linear_382_1231)"/>
<circle cx="88" cy="25" r="4" fill="url(#paint2_linear_382_1231)"/>
<defs>
<linearGradient id="paint0_linear_382_1231" x1="38.8308" y1="3.54002" x2="42.9123" y2="14.7955" gradientUnits="userSpaceOnUse">
<stop stop-color="#01B685"/>
<stop offset="1" stop-color="#28D2A4" stop-opacity="0"/>
</linearGradient>
<linearGradient id="paint1_linear_382_1231" x1="7.12308" y1="21.127" x2="11.1846" y2="25.0635" gradientUnits="userSpaceOnUse">
<stop stop-color="#01B685"/>
<stop offset="1" stop-color="#28D2A4" stop-opacity="0"/>
</linearGradient>
<linearGradient id="paint2_linear_382_1231" x1="84.1231" y1="21.127" x2="88.1846" y2="25.0635" gradientUnits="userSpaceOnUse">
<stop stop-color="#01B685"/>
<stop offset="1" stop-color="#28D2A4" stop-opacity="0"/>
</linearGradient>
</defs>
</svg>
