<svg width="100" height="52" viewBox="0 0 100 52" fill="none" xmlns="http://www.w3.org/2000/svg">
<path d="M19 10V38.5L51.5 7H22C20.3431 7 19 8.34315 19 10Z" fill="url(#paint0_linear_382_1301)"/>
<path d="M85 13.5V9C85 6.23858 82.7614 4 80 4H21C18.2386 4 16 6.23858 16 9V44C16 46.7614 18.2386 49 21 49H80C82.7614 49 85 46.7614 85 44V19.5" stroke="black" stroke-width="2"/>
<path d="M22.14 36.9117L34.7647 30.1405C42.6552 25.9085 49 43 42 43C34.7647 43 40.1396 29 45.8945 26.2029L58.5192 19.4317M58.5192 19.4317L50.8594 18.5M58.5192 19.4317L55.3594 26.2029" stroke="black" stroke-width="2"/>
<line x1="22" y1="12" x2="78" y2="12" stroke="black" stroke-width="2"/>
<circle cx="69" cy="8" r="1" fill="black"/>
<circle cx="73" cy="8" r="1" fill="black"/>
<circle cx="77" cy="8" r="1" fill="black"/>
<rect x="67" y="29" width="2.5" height="14" fill="url(#paint1_linear_382_1301)"/>
<rect width="2.5" height="20" transform="matrix(1 0 0 -1 70.75 43)" fill="url(#paint2_linear_382_1301)"/>
<rect x="74.5" y="37" width="2.5" height="6" fill="url(#paint3_linear_382_1301)"/>
<defs>
<linearGradient id="paint0_linear_382_1301" x1="19.5" y1="7.5" x2="35.5" y2="23.5" gradientUnits="userSpaceOnUse">
<stop stop-color="#01B685"/>
<stop offset="1" stop-color="#28D2A4" stop-opacity="0"/>
</linearGradient>
<linearGradient id="paint1_linear_382_1301" x1="67.8333" y1="29" x2="67.8333" y2="42.5" gradientUnits="userSpaceOnUse">
<stop stop-color="#01B685"/>
<stop offset="1" stop-color="#28D2A4" stop-opacity="0"/>
</linearGradient>
<linearGradient id="paint2_linear_382_1301" x1="0.833333" y1="-3.17987e-08" x2="0.833334" y2="19.2857" gradientUnits="userSpaceOnUse">
<stop stop-color="#01B685"/>
<stop offset="1" stop-color="#28D2A4" stop-opacity="0"/>
</linearGradient>
<linearGradient id="paint3_linear_382_1301" x1="75.3333" y1="37" x2="75.3333" y2="42.7857" gradientUnits="userSpaceOnUse">
<stop stop-color="#01B685"/>
<stop offset="1" stop-color="#28D2A4" stop-opacity="0"/>
</linearGradient>
</defs>
</svg>
