<svg width="22" height="22" viewBox="0 0 22 22" fill="none" xmlns="http://www.w3.org/2000/svg">
<g clip-path="url(#clip0_373_181)">
<path d="M7.36049 11.4405C7.05399 12.043 7.40199 12.331 8.19599 12.823C8.87099 13.24 9.80349 13.3925 10.4025 13.4535C10.157 13.6895 11.282 12.6075 8.04199 15.724C7.35499 16.3825 8.46099 17.439 9.14749 16.7945L11.006 15.002C11.7175 15.6865 12.3995 16.3425 12.8645 16.797C13.5515 17.444 14.657 16.3965 13.9775 15.7265C13.9265 15.678 11.459 13.311 11.6095 13.456C12.216 13.395 13.1345 13.2335 13.8015 12.8255L13.801 12.825C14.595 12.3305 14.943 12.043 14.641 11.4405C14.4585 11.0985 13.9665 10.8125 13.3115 11.307C13.3115 11.307 12.427 11.9845 11.0005 11.9845C9.57349 11.9845 8.68949 11.307 8.68949 11.307C8.03499 10.81 7.54099 11.0985 7.36049 11.4405Z" fill="#A0A0A0"/>
<path d="M10.9993 11.071C12.7383 11.071 14.1583 9.712 14.1583 8.039C14.1583 6.359 12.7383 5 10.9993 5C9.25984 5 7.83984 6.359 7.83984 8.039C7.83984 9.712 9.25984 11.071 10.9993 11.071ZM10.9993 6.5395C11.8538 6.5395 12.5508 7.21 12.5508 8.039C12.5508 8.861 11.8538 9.5315 10.9993 9.5315C10.1448 9.5315 9.44784 8.861 9.44784 8.039C9.44734 7.2095 10.1443 6.5395 10.9993 6.5395Z" fill="#A0A0A0"/>
</g>
<rect x="0.5" y="0.5" width="21" height="21" rx="10.5" stroke="#01B685"/>
<defs>
<clipPath id="clip0_373_181">
<rect width="12" height="12" fill="white" transform="translate(5 5)"/>
</clipPath>
</defs>
</svg>
