<svg width="22" height="22" viewBox="0 0 22 22" fill="none" xmlns="http://www.w3.org/2000/svg">
<path d="M14.6772 11.8948C15.0153 12.2227 15.3739 12.5403 15.6813 12.8989C15.8145 13.0629 15.9375 13.2268 16.0399 13.4112C16.1731 13.6776 16.0502 13.9748 15.8145 13.985H14.3288C13.9497 14.0158 13.6423 13.8621 13.3861 13.5957C13.1812 13.3907 12.9865 13.1653 12.7918 12.9501C12.7099 12.8579 12.6279 12.776 12.5254 12.7145C12.3205 12.5813 12.1463 12.6223 12.0336 12.8374C11.9106 13.0526 11.8901 13.2883 11.8799 13.5342C11.8594 13.8826 11.7569 13.9748 11.4086 13.9953C10.6606 14.026 9.94333 13.9133 9.27731 13.5342C8.69327 13.1961 8.24243 12.7247 7.84282 12.1919C7.07434 11.157 6.49029 10.0094 5.95748 8.83109C5.83452 8.56469 5.92674 8.42124 6.21364 8.42124C6.69522 8.41099 7.18705 8.41099 7.66863 8.42124C7.86331 8.42124 7.99652 8.53395 8.06824 8.71838C8.33465 9.36391 8.65228 9.97869 9.05189 10.5422C9.15436 10.6959 9.26707 10.8496 9.42076 10.9521C9.59495 11.0751 9.72816 11.0341 9.81013 10.8394C9.86136 10.7164 9.88185 10.5832 9.8921 10.4603C9.93308 10.0094 9.93308 9.55859 9.87161 9.11799C9.83062 8.84134 9.67692 8.6569 9.39003 8.60567C9.24658 8.57493 9.26707 8.5237 9.33879 8.44173C9.46175 8.29828 9.57446 8.21631 9.78963 8.21631H11.47C11.7365 8.26754 11.7979 8.3905 11.8287 8.6569V10.5217C11.8287 10.6242 11.8799 10.9316 12.0643 11.0033C12.2078 11.0546 12.3102 10.9316 12.4025 10.8394C12.8021 10.409 13.089 9.90697 13.3451 9.3844C13.4578 9.15898 13.5603 8.91306 13.6525 8.6774C13.7243 8.50321 13.837 8.41099 14.0316 8.42124H15.6506C15.7018 8.42124 15.7428 8.42124 15.794 8.43148C16.0707 8.48271 16.1424 8.59543 16.0604 8.86183C15.9272 9.28193 15.6711 9.63031 15.4149 9.97869C15.1485 10.3476 14.8616 10.7164 14.585 11.0853C14.3493 11.4234 14.3698 11.5976 14.6772 11.8948Z" fill="#A0A0A0"/>
<rect x="0.5" y="0.5" width="21" height="21" rx="10.5" stroke="#01B685"/>
</svg>
